<mxfile host="app.diagrams.net" modified="2023-04-21T05:27:07.526Z" agent="Mozilla/5.0 (Windows NT 10.0; Win64; x64) AppleWebKit/537.36 (KHTML, like Gecko) Chrome/112.0.0.0 Safari/537.36" etag="jtwSBwNSbANaH8nMl9PY" version="21.2.1" type="device">
  <diagram name="Страница 1" id="XauSKGKSw2o79-Ka04SH">
    <mxGraphModel dx="1366" dy="758" grid="1" gridSize="10" guides="1" tooltips="1" connect="1" arrows="1" fold="1" page="1" pageScale="1" pageWidth="827" pageHeight="1169" math="0" shadow="0">
      <root>
        <mxCell id="0" />
        <mxCell id="1" parent="0" />
        <mxCell id="hR2GHE-QKQuzmA2FVD8o-4" value="" style="edgeStyle=orthogonalEdgeStyle;rounded=0;orthogonalLoop=1;jettySize=auto;html=1;" edge="1" parent="1" source="hR2GHE-QKQuzmA2FVD8o-1" target="hR2GHE-QKQuzmA2FVD8o-3">
          <mxGeometry relative="1" as="geometry" />
        </mxCell>
        <mxCell id="hR2GHE-QKQuzmA2FVD8o-1" value="Begin" style="ellipse;whiteSpace=wrap;html=1;" vertex="1" parent="1">
          <mxGeometry x="340" y="30" width="120" height="80" as="geometry" />
        </mxCell>
        <mxCell id="hR2GHE-QKQuzmA2FVD8o-6" value="" style="edgeStyle=orthogonalEdgeStyle;rounded=0;orthogonalLoop=1;jettySize=auto;html=1;" edge="1" parent="1" source="hR2GHE-QKQuzmA2FVD8o-7" target="hR2GHE-QKQuzmA2FVD8o-5">
          <mxGeometry relative="1" as="geometry" />
        </mxCell>
        <mxCell id="hR2GHE-QKQuzmA2FVD8o-3" value="length" style="shape=parallelogram;perimeter=parallelogramPerimeter;whiteSpace=wrap;html=1;fixedSize=1;" vertex="1" parent="1">
          <mxGeometry x="340" y="140" width="120" height="60" as="geometry" />
        </mxCell>
        <mxCell id="hR2GHE-QKQuzmA2FVD8o-13" value="" style="edgeStyle=orthogonalEdgeStyle;rounded=0;orthogonalLoop=1;jettySize=auto;html=1;" edge="1" parent="1" source="hR2GHE-QKQuzmA2FVD8o-5" target="hR2GHE-QKQuzmA2FVD8o-12">
          <mxGeometry relative="1" as="geometry" />
        </mxCell>
        <mxCell id="hR2GHE-QKQuzmA2FVD8o-5" value="&lt;font style=&quot;&quot;&gt;&lt;font style=&quot;font-size: 18px;&quot;&gt;array&lt;/font&gt;&lt;span style=&quot;font-size: 24px;&quot;&gt; &lt;/span&gt;&lt;font style=&quot;font-size: 18px;&quot;&gt;= &lt;/font&gt;&lt;span style=&quot;font-size: 24px;&quot;&gt;{i&lt;/span&gt;&lt;/font&gt;&lt;font style=&quot;&quot;&gt;&lt;span style=&quot;font-size: 10px;&quot;&gt;1&lt;/span&gt;&lt;font style=&quot;font-size: 18px;&quot;&gt;+...+&lt;/font&gt;&lt;font style=&quot;font-size: 24px; border-color: var(--border-color);&quot;&gt;i&lt;/font&gt;&lt;font style=&quot;border-color: var(--border-color); font-size: 10px;&quot;&gt;length&lt;/font&gt;&lt;font style=&quot;border-color: var(--border-color); font-size: 24px;&quot;&gt;}&lt;/font&gt;&lt;br&gt;&lt;/font&gt;" style="shape=parallelogram;perimeter=parallelogramPerimeter;whiteSpace=wrap;html=1;fixedSize=1;" vertex="1" parent="1">
          <mxGeometry x="295" y="350" width="210" height="50" as="geometry" />
        </mxCell>
        <mxCell id="hR2GHE-QKQuzmA2FVD8o-8" value="" style="edgeStyle=orthogonalEdgeStyle;rounded=0;orthogonalLoop=1;jettySize=auto;html=1;" edge="1" parent="1" source="hR2GHE-QKQuzmA2FVD8o-3" target="hR2GHE-QKQuzmA2FVD8o-7">
          <mxGeometry relative="1" as="geometry">
            <mxPoint x="400" y="200" as="sourcePoint" />
            <mxPoint x="400" y="330" as="targetPoint" />
          </mxGeometry>
        </mxCell>
        <mxCell id="hR2GHE-QKQuzmA2FVD8o-9" style="edgeStyle=orthogonalEdgeStyle;rounded=0;orthogonalLoop=1;jettySize=auto;html=1;entryX=0;entryY=0.25;entryDx=0;entryDy=0;" edge="1" parent="1" source="hR2GHE-QKQuzmA2FVD8o-7" target="hR2GHE-QKQuzmA2FVD8o-3">
          <mxGeometry relative="1" as="geometry">
            <Array as="points">
              <mxPoint x="310" y="260" />
              <mxPoint x="310" y="159" />
            </Array>
          </mxGeometry>
        </mxCell>
        <mxCell id="hR2GHE-QKQuzmA2FVD8o-7" value="length &amp;gt; 0" style="rhombus;whiteSpace=wrap;html=1;" vertex="1" parent="1">
          <mxGeometry x="360" y="220" width="80" height="80" as="geometry" />
        </mxCell>
        <mxCell id="hR2GHE-QKQuzmA2FVD8o-10" value="yes" style="text;html=1;strokeColor=none;fillColor=none;align=center;verticalAlign=middle;whiteSpace=wrap;rounded=0;" vertex="1" parent="1">
          <mxGeometry x="383" y="310" width="60" height="30" as="geometry" />
        </mxCell>
        <mxCell id="hR2GHE-QKQuzmA2FVD8o-11" value="no" style="text;html=1;strokeColor=none;fillColor=none;align=center;verticalAlign=middle;whiteSpace=wrap;rounded=0;" vertex="1" parent="1">
          <mxGeometry x="260" y="190" width="60" height="30" as="geometry" />
        </mxCell>
        <mxCell id="hR2GHE-QKQuzmA2FVD8o-15" value="" style="edgeStyle=orthogonalEdgeStyle;rounded=0;orthogonalLoop=1;jettySize=auto;html=1;" edge="1" parent="1" source="hR2GHE-QKQuzmA2FVD8o-12" target="hR2GHE-QKQuzmA2FVD8o-14">
          <mxGeometry relative="1" as="geometry" />
        </mxCell>
        <mxCell id="hR2GHE-QKQuzmA2FVD8o-12" value="&lt;font style=&quot;border-color: var(--border-color);&quot;&gt;&lt;font style=&quot;border-color: var(--border-color); font-size: 18px;&quot;&gt;array&lt;/font&gt;&lt;font style=&quot;border-color: var(--border-color); font-size: 24px;&quot;&gt;[&lt;/font&gt;&lt;span style=&quot;border-color: var(--border-color); font-size: 24px;&quot;&gt;i&lt;/span&gt;&lt;/font&gt;&lt;font style=&quot;border-color: var(--border-color);&quot;&gt;&lt;span style=&quot;border-color: var(--border-color); font-size: 10px;&quot;&gt;1&lt;/span&gt;&lt;font style=&quot;border-color: var(--border-color); font-size: 18px;&quot;&gt;+...+&lt;/font&gt;&lt;font style=&quot;border-color: var(--border-color); font-size: 24px;&quot;&gt;i&lt;/font&gt;&lt;font style=&quot;border-color: var(--border-color); font-size: 10px;&quot;&gt;length&lt;/font&gt;&lt;font style=&quot;border-color: var(--border-color); font-size: 24px;&quot;&gt;] &amp;gt; 4&lt;/font&gt;&lt;/font&gt;" style="rhombus;whiteSpace=wrap;html=1;" vertex="1" parent="1">
          <mxGeometry x="295" y="450" width="210" height="150" as="geometry" />
        </mxCell>
        <mxCell id="hR2GHE-QKQuzmA2FVD8o-14" value="array2[count] = array[i]&lt;br&gt;count++" style="rounded=0;whiteSpace=wrap;html=1;" vertex="1" parent="1">
          <mxGeometry x="320" y="650" width="160" height="60" as="geometry" />
        </mxCell>
        <mxCell id="hR2GHE-QKQuzmA2FVD8o-17" value="yes" style="text;html=1;strokeColor=none;fillColor=none;align=center;verticalAlign=middle;whiteSpace=wrap;rounded=0;" vertex="1" parent="1">
          <mxGeometry x="390" y="600" width="60" height="30" as="geometry" />
        </mxCell>
        <mxCell id="hR2GHE-QKQuzmA2FVD8o-21" value="" style="edgeStyle=orthogonalEdgeStyle;rounded=0;orthogonalLoop=1;jettySize=auto;html=1;" edge="1" parent="1" source="hR2GHE-QKQuzmA2FVD8o-18" target="hR2GHE-QKQuzmA2FVD8o-20">
          <mxGeometry relative="1" as="geometry" />
        </mxCell>
        <mxCell id="hR2GHE-QKQuzmA2FVD8o-28" style="edgeStyle=orthogonalEdgeStyle;rounded=0;orthogonalLoop=1;jettySize=auto;html=1;entryX=0;entryY=0.5;entryDx=0;entryDy=0;exitX=0;exitY=0.5;exitDx=0;exitDy=0;" edge="1" parent="1" source="hR2GHE-QKQuzmA2FVD8o-23" target="hR2GHE-QKQuzmA2FVD8o-14">
          <mxGeometry relative="1" as="geometry">
            <Array as="points">
              <mxPoint x="300" y="815" />
              <mxPoint x="300" y="680" />
            </Array>
          </mxGeometry>
        </mxCell>
        <mxCell id="hR2GHE-QKQuzmA2FVD8o-18" value="array2[]" style="shape=parallelogram;perimeter=parallelogramPerimeter;whiteSpace=wrap;html=1;fixedSize=1;" vertex="1" parent="1">
          <mxGeometry x="340" y="900" width="120" height="60" as="geometry" />
        </mxCell>
        <mxCell id="hR2GHE-QKQuzmA2FVD8o-20" value="End" style="ellipse;whiteSpace=wrap;html=1;" vertex="1" parent="1">
          <mxGeometry x="340" y="1010" width="120" height="80" as="geometry" />
        </mxCell>
        <mxCell id="hR2GHE-QKQuzmA2FVD8o-24" value="" style="edgeStyle=orthogonalEdgeStyle;rounded=0;orthogonalLoop=1;jettySize=auto;html=1;" edge="1" parent="1" source="hR2GHE-QKQuzmA2FVD8o-14" target="hR2GHE-QKQuzmA2FVD8o-23">
          <mxGeometry relative="1" as="geometry">
            <mxPoint x="400" y="710" as="sourcePoint" />
            <mxPoint x="400" y="830" as="targetPoint" />
          </mxGeometry>
        </mxCell>
        <mxCell id="hR2GHE-QKQuzmA2FVD8o-25" value="" style="edgeStyle=orthogonalEdgeStyle;rounded=0;orthogonalLoop=1;jettySize=auto;html=1;" edge="1" parent="1" source="hR2GHE-QKQuzmA2FVD8o-23" target="hR2GHE-QKQuzmA2FVD8o-18">
          <mxGeometry relative="1" as="geometry" />
        </mxCell>
        <mxCell id="hR2GHE-QKQuzmA2FVD8o-23" value="&amp;nbsp;array[i] &amp;gt; array.length" style="rhombus;whiteSpace=wrap;html=1;" vertex="1" parent="1">
          <mxGeometry x="335" y="760" width="130" height="110" as="geometry" />
        </mxCell>
        <mxCell id="hR2GHE-QKQuzmA2FVD8o-26" value="yes" style="text;html=1;strokeColor=none;fillColor=none;align=center;verticalAlign=middle;whiteSpace=wrap;rounded=0;" vertex="1" parent="1">
          <mxGeometry x="390" y="870" width="60" height="30" as="geometry" />
        </mxCell>
        <mxCell id="hR2GHE-QKQuzmA2FVD8o-27" value="no" style="text;html=1;strokeColor=none;fillColor=none;align=center;verticalAlign=middle;whiteSpace=wrap;rounded=0;" vertex="1" parent="1">
          <mxGeometry x="250" y="730" width="60" height="30" as="geometry" />
        </mxCell>
      </root>
    </mxGraphModel>
  </diagram>
</mxfile>
